HIERARCHY
ROOT Hips
{
	OFFSET 0.00000 0.00000 0.00000
	CHANNELS 6 Xposition Yposition Zposition Zrotation Yrotation Xrotation 
	JOINT LHipJoint
	{
		OFFSET 0 0 0
		CHANNELS 3 Zrotation Yrotation Xrotation
		JOINT LeftUpLeg
		{
			OFFSET 1.41496 -1.84582 0.78394
			CHANNELS 3 Zrotation Yrotation Xrotation
			JOINT LeftLeg
			{
				OFFSET 2.58040 -7.08960 0.00000
				CHANNELS 3 Zrotation Yrotation Xrotation
				JOINT LeftFoot
				{
					OFFSET 2.64719 -7.27309 0.00000
					CHANNELS 3 Zrotation Yrotation Xrotation
					JOINT LeftToeBase
					{
						OFFSET 0.20718 -0.56921 2.20259
						CHANNELS 3 Zrotation Yrotation Xrotation
						End Site
						{
							OFFSET 0.00000 -0.00000 1.14243
						}
					}
				}
			}
		}
	}
	JOINT RHipJoint
	{
		OFFSET 0 0 0
		CHANNELS 3 Zrotation Yrotation Xrotation
		JOINT RightUpLeg
		{
			OFFSET -1.40551 -1.84582 0.78394
			CHANNELS 3 Zrotation Yrotation Xrotation
			JOINT RightLeg
			{
				OFFSET -2.56572 -7.04926 0.00000
				CHANNELS 3 Zrotation Yrotation Xrotation
				JOINT RightFoot
				{
					OFFSET -2.57974 -7.08778 0.00000
					CHANNELS 3 Zrotation Yrotation Xrotation
					JOINT RightToeBase
					{
						OFFSET -0.26704 -0.73369 2.20815
						CHANNELS 3 Zrotation Yrotation Xrotation
						End Site
						{
							OFFSET -0.00000 -0.00000 1.16246
						}
					}
				}
			}
		}
	}
	JOINT LowerBack
	{
		OFFSET 0 0 0
		CHANNELS 3 Zrotation Yrotation Xrotation
		JOINT Spine
		{
			OFFSET -0.04690 2.05196 -0.07017
			CHANNELS 3 Zrotation Yrotation Xrotation
			JOINT Spine1
			{
				OFFSET 0.04085 2.05260 0.00800
				CHANNELS 3 Zrotation Yrotation Xrotation
				JOINT Neck
				{
					OFFSET 0 0 0
					CHANNELS 3 Zrotation Yrotation Xrotation
					JOINT Neck1
					{
						OFFSET -0.03582 1.80995 0.19301
						CHANNELS 3 Zrotation Yrotation Xrotation
						JOINT Head
						{
							OFFSET 0.00952 1.80195 -0.36389
							CHANNELS 3 Zrotation Yrotation Xrotation
							End Site
							{
								OFFSET 0.00392 1.85062 -0.14494
							}
						}
					}
				}
				JOINT LeftShoulder
				{
					OFFSET 0 0 0
					CHANNELS 3 Zrotation Yrotation Xrotation
					JOINT LeftArm
					{
						OFFSET 3.55224 1.39726 -0.13667
						CHANNELS 3 Zrotation Yrotation Xrotation
						JOINT LeftForeArm
						{
							OFFSET 5.14507 -0.00000 -0.00000
							CHANNELS 3 Zrotation Yrotation Xrotation
							JOINT LeftHand
							{
								OFFSET 3.50646 -0.00000 0.00000
								CHANNELS 3 Zrotation Yrotation Xrotation
								JOINT LeftFingerBase
								{
									OFFSET 0 0 0
									CHANNELS 3 Zrotation Yrotation Xrotation
									JOINT LeftHandIndex1
									{
										OFFSET 0.62997 -0.00000 0.00000
										CHANNELS 3 Zrotation Yrotation Xrotation
										End Site
										{
											OFFSET 0.50790 -0.00000 0.00000
										}
									}
								}
								JOINT LThumb
								{
									OFFSET 0 0 0
									CHANNELS 3 Zrotation Yrotation Xrotation
									End Site
									{
										OFFSET 0.51565 -0.00000 0.51565
									}
								}
							}
						}
					}
				}
				JOINT RightShoulder
				{
					OFFSET 0 0 0
					CHANNELS 3 Zrotation Yrotation Xrotation
					JOINT RightArm
					{
						OFFSET -3.06467 1.61290 -0.28813
						CHANNELS 3 Zrotation Yrotation Xrotation
						JOINT RightForeArm
						{
							OFFSET -5.23200 -0.00000 -0.00000
							CHANNELS 3 Zrotation Yrotation Xrotation
							JOINT RightHand
							{
								OFFSET -3.65641 -0.00000 0.00000
								CHANNELS 3 Zrotation Yrotation Xrotation
								JOINT RightFingerBase
								{
									OFFSET 0 0 0
									CHANNELS 3 Zrotation Yrotation Xrotation
									JOINT RightHandIndex1
									{
										OFFSET -0.65681 -0.00000 0.00000
										CHANNELS 3 Zrotation Yrotation Xrotation
										End Site
										{
											OFFSET -0.52953 -0.00000 0.00000
										}
									}
								}
								JOINT RThumb
								{
									OFFSET 0 0 0
									CHANNELS 3 Zrotation Yrotation Xrotation
									End Site
									{
										OFFSET -0.53762 -0.00000 0.53762
									}
								}
							}
						}
					}
				}
			}
		}
	}
}
MOTION
Frames: 9
Frame Time: .0083333
2.924 15.9981 -48.6193 0 0 0 0 0 0 -21 0 0 0 0 0 0 0 0 0 0 0 0 0 0 21 0 0 0 0 0 0 0 0 0 0 0 0 0 0 0 0 0 0 0 0 0 0 -16 0 0 21 0 0 11 0 0 0 -8 0 0 0 0 0 0 0 0 0 0 0 0 0 0 0 0 0 0 0 0 8 0 0 0 0 0 0 0 0 0 0 0 0 0 0 0 0 0
2.9240 15.9981 -48.6193 -5.1677 -13.7442 29.6228 0.0000 0.0000 0.0000 -13.0972 -11.8620 -62.7041 16.7708 19.7481 80.5203 1.1485 -18.1490 -21.5040 0.0265 -1.0511 -2.8895 0.0000 0.0000 0.0000 22.7122 -3.4020 -5.4596 -3.7363 -11.8010 35.0316 0.1296 8.7903 -3.2516 -0.5007 4.5362 -12.5904 5.8129 2.4578 11.4312 2.0508 4.3011 -2.2460 -1.8692 1.8418 -8.5687 -0.3013 1.0256 -21.2858 -5.2574 1.8059 1.1892 -1.4378 0.5568 3.7392 0.0000 0.0000 0.0000 -83.7424 25.3213 48.4898 97.5151 -59.7855 -66.5036 -0.0000 0.0000 -12.4128 26.5415 -16.4827 -8.0661 -7.1250 0.0000 -0.0000 -0.8325 11.6800 0.6468 0.0000 0.0000 0.0000 88.3594 -3.7178 57.1432 -113.6134 57.7846 -80.2977 0.0000 -0.0000 -0.8322 -25.2955 4.6699 -2.2035 7.1250 -0.0000 -0.0000 1.0228 -24.8171 0.4991
2.8874 16.0226 -48.3453 -4.6504 -13.3994 29.5559 0.0000 0.0000 0.0000 -14.0973 -11.7491 -61.0169 16.4575 19.6964 79.5918 1.1940 -18.7100 -22.0080 0.0103 -0.6549 -1.7998 0.0000 0.0000 0.0000 22.0993 -2.8551 -8.3106 -4.9603 -13.3389 40.6507 0.1400 8.4724 -2.5468 -1.2149 6.9918 -19.6910 5.3092 2.3049 11.6826 1.9489 4.0337 -2.2307 -1.6636 1.7300 -8.7397 -0.3575 0.9963 -21.4308 -4.9977 1.7626 1.1558 -1.3516 0.5496 3.7438 -0.0000 -0.0000 0.0000 -83.8593 24.4338 48.9843 97.9906 -59.7574 -66.9144 -0.0000 0.0000 -12.4882 26.8843 -16.8214 -8.3466 -7.1250 0.0000 -0.0000 -0.6386 11.2560 0.5017 -0.0000 -0.0000 0.0000 88.0996 -5.4072 55.7423 -112.6460 57.9707 -79.4784 0.0000 -0.0000 -0.6554 -25.3460 4.5351 -2.1450 7.1250 -0.0000 -0.0000 0.9823 -24.9639 0.4760
2.8636 16.0074 -48.0907 -3.9824 -12.9069 29.3508 0.0000 0.0000 0.0000 -15.2870 -11.8397 -59.0528 16.1604 19.6428 78.7093 1.3621 -18.5912 -23.0225 0.0345 -1.1985 -3.2951 0.0000 0.0000 0.0000 21.3573 -2.4519 -10.9382 -6.2931 -14.7065 46.1470 0.1043 7.2505 -2.1046 -1.2553 7.1030 -20.0209 4.9213 2.0508 12.0394 1.8269 3.6494 -2.1939 -1.5235 1.5549 -8.9435 -0.3927 0.9747 -21.4454 -4.8305 1.7245 1.0289 -1.2971 0.5430 3.7022 0.0000 -0.0000 0.0000 -84.0520 23.2456 49.4511 98.8230 -59.7038 -67.6333 -0.0000 0.0000 -12.7494 27.0697 -17.0032 -8.4997 -7.1250 0.0000 -0.0000 -0.5345 11.0273 0.4224 0.0000 -0.0000 0.0000 87.8937 -7.1725 54.2152 -110.8720 58.2882 -77.9718 0.0000 -0.0000 -0.7192 -25.7638 4.2046 -2.0267 7.1250 -0.0000 -0.0000 0.6615 -25.3129 0.3152
2.8259 16.0001 -47.8358 -3.2070 -12.5866 29.0723 0.0000 0.0000 0.0000 -16.4824 -11.8181 -57.1452 15.8431 19.5806 77.7640 1.3564 -19.2517 -23.2219 0.0001 -0.0581 -0.1595 0.0000 0.0000 0.0000 20.5066 -1.9745 -13.3529 -7.6163 -15.8296 51.1684 0.0391 5.8642 -2.8691 -1.7769 8.3850 -23.8898 4.1536 1.8462 12.3440 1.7073 3.2613 -2.0759 -1.1595 1.4030 -9.0446 -0.2710 1.0306 -21.3837 -4.8573 1.7567 0.7740 -1.3219 0.5640 3.6158 -0.0000 -0.0000 0.0000 -84.3137 21.8461 49.8518 100.4890 -59.5802 -69.0709 -0.0000 0.0000 -12.9078 26.8758 -16.9332 -8.3967 -7.1250 0.0000 -0.0000 -0.6552 11.1348 0.5164 -0.0000 -0.0000 0.0000 87.7983 -8.8698 52.4698 -108.1354 58.7201 -75.6382 0.0000 -0.0000 -0.8900 -25.9653 3.9650 -1.9286 7.1250 -0.0000 -0.0000 0.5047 -25.5712 0.2374
2.7798 16.0637 -47.5462 -2.0851 -12.3109 28.7166 0.0000 0.0000 0.0000 -17.9184 -12.0558 -55.3430 15.4761 19.5021 76.6668 1.2666 -19.9188 -22.9244 0.0007 0.1649 0.4530 0.0000 0.0000 0.0000 19.3191 -1.3250 -16.1116 -8.9557 -16.7791 55.9367 -0.0523 4.2270 -4.6998 -1.1246 6.7360 -18.9356 3.0745 1.5685 12.6112 1.4943 2.7096 -1.9024 -0.6811 1.1884 -9.0695 -0.1227 1.1569 -21.3579 -4.8780 1.8697 0.3962 -1.3420 0.6270 3.4986 -0.0000 0.0000 0.0000 -84.8512 19.6417 49.7952 103.2310 -59.3281 -71.4326 -0.0000 0.0000 -12.9322 26.8008 -17.0607 -8.4301 -7.1250 0.0000 -0.0000 -0.7173 11.0068 0.5672 -0.0000 0.0000 0.0000 88.1247 -10.3952 50.2005 -102.6737 59.3843 -70.9530 0.0000 -0.0000 -1.4503 -26.7727 3.6944 -1.8620 7.1250 -0.0000 -0.0000 -0.1120 -25.8431 -0.0520
2.7427 16.0740 -47.2818 -1.2517 -11.8961 28.5204 0.0000 0.0000 0.0000 -19.0427 -12.2207 -53.5686 15.1349 19.4228 75.6428 1.2473 -20.4018 -22.9981 0.0055 0.4770 1.3106 0.0000 0.0000 0.0000 18.3341 -0.8956 -18.7619 -10.3164 -17.5840 60.5407 -0.1020 3.1099 -5.7502 -1.2581 7.1106 -20.0434 2.3892 1.3000 12.8619 1.3462 2.2365 -1.8115 -0.3653 0.9910 -9.1474 -0.0706 1.2190 -21.3215 -4.7933 1.9200 0.1255 -1.3196 0.6626 3.4091 -0.0000 0.0000 0.0000 -85.2288 17.8191 49.9714 105.3630 -59.0891 -73.2641 -0.0000 0.0000 -12.9533 26.8378 -17.1114 -8.4674 -7.1250 0.0000 -0.0000 -0.6980 10.9454 0.5528 -0.0000 0.0000 0.0000 88.2175 -12.0241 48.1513 -98.6260 59.7170 -67.4633 0.0000 -0.0000 -1.7501 -27.2537 3.5627 -1.8334 7.1250 -0.0000 -0.0000 -0.4799 -25.9735 -0.2212
2.7061 16.0840 -47.0170 -0.4605 -11.4158 28.3747 0.0000 0.0000 0.0000 -20.0608 -12.4487 -51.8093 14.7819 19.3343 74.5789 1.2288 -20.8258 -23.0599 0.0101 0.6483 1.7815 0.0000 0.0000 0.0000 17.3662 -0.4576 -21.5398 -11.6747 -18.2497 64.9538 -0.1610 2.0074 -7.1469 -1.4422 7.5922 -21.4820 1.8103 1.0034 13.0751 1.2073 1.7398 -1.7341 -0.0902 0.7777 -9.2074 -0.0379 1.2814 -21.2707 -4.6769 1.9738 -0.1480 -1.2840 0.7016 3.3162 0.0000 -0.0000 0.0000 -85.6312 15.8172 50.0932 107.7962 -58.7688 -75.3483 -0.0000 0.0000 -12.9479 26.9082 -17.1073 -8.4910 -7.1250 0.0000 -0.0000 -0.6512 10.9387 0.5158 0.0000 -0.0000 0.0000 88.3618 -13.6709 45.9594 -94.1992 59.9333 -63.6358 0.0000 -0.0000 -2.0383 -27.8117 3.5596 -1.8758 7.1250 -0.0000 -0.0000 -0.9026 -25.9566 -0.4165
2.6699 16.0935 -46.7509 0.2481 -10.8664 28.2968 0.0000 0.0000 0.0000 -20.9377 -12.7190 -50.0636 14.4277 19.2387 73.5065 1.2205 -21.2048 -23.1682 0.0122 0.7138 1.9618 0.0000 0.0000 0.0000 16.4464 0.0096 -24.4926 -13.0280 -18.7923 69.2126 -0.2321 0.9862 -8.8048 -1.7074 8.2280 -23.4087 1.3723 0.6860 13.2441 1.0890 1.2378 -1.6779 0.1324 0.5554 -9.2551 -0.0422 1.3326 -21.2302 -4.5096 2.0207 -0.3938 -1.2275 0.7392 3.2320 -0.0000 -0.0000 0.0000 -86.0487 13.6651 50.1771 110.4895 -58.3527 -77.6463 -0.0000 0.0000 -12.9335 27.0260 -17.0708 -8.5162 -7.1250 0.0000 -0.0000 -0.5700 10.9601 0.4513 -0.0000 -0.0000 0.0000 88.5314 -15.3790 43.6520 -89.7274 59.9997 -59.7639 0.0000 -0.0000 -2.2221 -28.4712 3.6955 -2.0019 7.1250 -0.0000 -0.0000 -1.3966 -25.7773 -0.6504
